SplineFontDB: 3.2
FontName: Xesada
FullName: Xesada
FamilyName: Xesada
Weight: Regular
Copyright: Copyright (c) 2024, W.F.Turnip
UComments: "2024-6-10: Created with FontForge (http://fontforge.org)"
Version: 001.000
ItalicAngle: 0
UnderlinePosition: -95
UnderlineWidth: 47
Ascent: 725
Descent: 225
InvalidEm: 0
LayerCount: 2
Layer: 0 1 "+gMyXYgAA" 1
Layer: 1 1 "+Uk2XYgAA" 0
XUID: [1021 352 -730677569 4677510]
OS2Version: 0
OS2_WeightWidthSlopeOnly: 0
OS2_UseTypoMetrics: 1
CreationTime: 1717997472
ModificationTime: 1743600751
OS2TypoAscent: 0
OS2TypoAOffset: 1
OS2TypoDescent: 0
OS2TypoDOffset: 1
OS2TypoLinegap: 0
OS2WinAscent: 0
OS2WinAOffset: 1
OS2WinDescent: 0
OS2WinDOffset: 1
HheadAscent: 0
HheadAOffset: 1
HheadDescent: 0
HheadDOffset: 1
OS2Vendor: 'PfEd'
MarkAttachClasses: 1
DEI: 91125
Encoding: ISO8859-1
UnicodeInterp: none
NameList: AGL For New Fonts
DisplaySize: -24
AntiAlias: 1
FitToEm: 0
WinInfo: 0 32 12
BeginPrivate: 0
EndPrivate
BeginChars: 256 95

StartChar: nine
Encoding: 57 57 0
Width: 500
Flags: W
LayerCount: 2
Fore
SplineSet
250 525 m 1,0,-1
 444.85546875 412.5 l 1,1,-1
 444.85546875 387.5 l 1,2,-1
 423.205078125 375 l 1,3,-1
 250 475 l 1,4,-1
 98.4453125 387.5 l 1,5,-1
 98.4453125 212.5 l 1,6,-1
 271.650390625 112.5 l 1,7,-1
 271.650390625 87.5 l 1,8,-1
 250 75 l 1,9,-1
 55.14453125 187.5 l 1,10,-1
 55.14453125 412.5 l 1,11,-1
 250 525 l 1,0,-1
250 425 m 1,12,-1
 358.25390625 362.5 l 1,13,-1
 358.25390625 237.5 l 1,14,-1
 250 175 l 1,15,-1
 141.74609375 237.5 l 1,16,-1
 141.74609375 362.5 l 1,17,-1
 250 425 l 1,12,-1
250 375 m 1,18,-1
 185.048828125 337.5 l 1,19,-1
 185.048828125 262.5 l 1,20,-1
 250 225 l 1,21,-1
 314.951171875 262.5 l 1,22,-1
 314.951171875 337.5 l 1,23,-1
 250 375 l 1,18,-1
EndSplineSet
EndChar

StartChar: eight
Encoding: 56 56 1
Width: 500
Flags: W
LayerCount: 2
Fore
SplineSet
250 525 m 1,0,-1
 444.85546875 412.5 l 1,1,-1
 444.85546875 187.5 l 1,2,-1
 423.205078125 175 l 1,3,-1
 401.5546875 187.5 l 1,4,-1
 401.5546875 387.5 l 1,5,-1
 250 475 l 1,6,-1
 98.4453125 387.5 l 1,7,-1
 98.4453125 187.5 l 1,8,-1
 76.794921875 175 l 1,9,-1
 55.14453125 187.5 l 1,10,-1
 55.14453125 412.5 l 1,11,-1
 250 525 l 1,0,-1
250 425 m 1,12,-1
 358.25390625 362.5 l 1,13,-1
 358.25390625 237.5 l 1,14,-1
 250 175 l 1,15,-1
 141.74609375 237.5 l 1,16,-1
 141.74609375 362.5 l 1,17,-1
 250 425 l 1,12,-1
250 375 m 1,18,-1
 185.048828125 337.5 l 1,19,-1
 185.048828125 262.5 l 1,20,-1
 250 225 l 1,21,-1
 314.951171875 262.5 l 1,22,-1
 314.951171875 337.5 l 1,23,-1
 250 375 l 1,18,-1
EndSplineSet
EndChar

StartChar: parenleft
Encoding: 40 40 2
Width: 500
Flags: W
LayerCount: 2
Fore
SplineSet
336.603515625 625 m 1,0,-1
 358.25390625 612.5 l 1,1,-1
 358.25390625 587.501953125 l 1,2,-1
 271.650390625 537.5 l 1,3,-1
 271.650390625 62.5 l 1,4,-1
 358.25390625 12.498046875 l 1,5,-1
 358.25390625 -12.5 l 1,6,-1
 336.603515625 -25 l 1,7,-1
 228.349609375 37.5 l 1,8,-1
 228.349609375 562.5 l 1,9,-1
 336.603515625 625 l 1,0,-1
EndSplineSet
EndChar

StartChar: parenright
Encoding: 41 41 3
Width: 500
Flags: W
LayerCount: 2
Fore
SplineSet
163.396484375 625 m 1,0,-1
 271.650390625 562.5 l 1,1,-1
 271.650390625 37.5 l 1,2,-1
 163.396484375 -25 l 1,3,-1
 141.74609375 -12.5 l 1,4,-1
 141.74609375 12.498046875 l 1,5,-1
 228.349609375 62.5 l 1,6,-1
 228.349609375 537.5 l 1,7,-1
 141.74609375 587.501953125 l 1,8,-1
 141.74609375 612.5 l 1,9,-1
 163.396484375 625 l 1,0,-1
EndSplineSet
EndChar

StartChar: l
Encoding: 108 108 4
Width: 500
Flags: W
LayerCount: 2
Fore
SplineSet
250 525 m 1,0,-1
 423.205078125 425 l 1,1,-1
 444.85546875 412.5 l 1,2,-1
 444.85546875 187.5 l 1,3,-1
 423.205078125 175 l 1,4,-1
 250 75 l 1,5,-1
 76.794921875 175 l 1,6,-1
 55.14453125 187.5 l 1,7,-1
 55.14453125 412.5 l 1,8,-1
 76.794921875 425 l 1,9,-1
 250 525 l 1,0,-1
250 475 m 1,10,-1
 98.4453125 387.5 l 1,11,-1
 98.4453125 212.5 l 1,12,-1
 250 125 l 1,13,-1
 401.5546875 212.5 l 1,14,-1
 401.5546875 387.5 l 1,15,-1
 250 475 l 1,10,-1
76.794921875 425 m 1,16,-1
 444.853515625 212.5 l 1,17,-1
 444.853515625 187.5 l 1,18,-1
 423.204101562 175 l 1,19,-1
 55.14453125 387.5 l 1,20,-1
 55.14453125 412.5 l 1,21,-1
 76.794921875 425 l 1,16,-1
EndSplineSet
EndChar

StartChar: Y
Encoding: 89 89 5
Width: 500
Flags: W
LayerCount: 2
Fore
SplineSet
250 75 m 1,0,-1
 55.14453125 187.5 l 1,1,-1
 55.14453125 212.5 l 1,2,-1
 76.794921875 225 l 1,3,-1
 250 125 l 1,4,-1
 401.5546875 212.5 l 1,5,-1
 401.5546875 387.5 l 1,6,-1
 250 475 l 1,7,-1
 76.794921875 375 l 1,8,-1
 55.14453125 387.5 l 1,9,-1
 55.14453125 412.5 l 1,10,-1
 250 525 l 1,11,-1
 444.85546875 412.5 l 1,12,-1
 444.85546875 187.5 l 1,13,-1
 250 75 l 1,0,-1
76.794921875 425 m 1,14,-1
 444.853515625 212.5 l 1,15,-1
 444.853515625 187.5 l 1,16,-1
 423.204101562 175 l 1,17,-1
 55.14453125 387.5 l 1,18,-1
 55.14453125 412.5 l 1,19,-1
 76.794921875 425 l 1,14,-1
250 425 m 1,20,-1
 358.25390625 362.5 l 1,21,-1
 358.25390625 237.5 l 1,22,-1
 250 175 l 1,23,-1
 141.74609375 237.5 l 1,24,-1
 141.74609375 362.5 l 1,25,-1
 250 425 l 1,20,-1
250 375 m 1,26,-1
 185.048828125 337.5 l 1,27,-1
 185.048828125 262.5 l 1,28,-1
 250 225 l 1,29,-1
 314.951171875 262.5 l 1,30,-1
 314.951171875 337.5 l 1,31,-1
 250 375 l 1,26,-1
EndSplineSet
EndChar

StartChar: q
Encoding: 113 113 6
Width: 500
Flags: W
LayerCount: 2
Fore
SplineSet
250 75 m 1,0,-1
 55.14453125 187.5 l 1,1,-1
 55.14453125 212.5 l 1,2,-1
 76.794921875 225 l 1,3,-1
 250 125 l 1,4,-1
 401.5546875 212.5 l 1,5,-1
 401.5546875 387.5 l 1,6,-1
 250 475 l 1,7,-1
 76.794921875 375 l 1,8,-1
 55.14453125 387.5 l 1,9,-1
 55.14453125 412.5 l 1,10,-1
 250 525 l 1,11,-1
 444.85546875 412.5 l 1,12,-1
 444.85546875 187.5 l 1,13,-1
 250 75 l 1,0,-1
EndSplineSet
EndChar

StartChar: e
Encoding: 101 101 7
Width: 0
GlyphClass: 4
Flags: W
LayerCount: 2
Fore
SplineSet
-423.205078125 625 m 1,0,-1
 -401.5546875 612.5 l 1,1,-1
 -250 525 l 1,2,-1
 -228.349609375 512.5 l 1,3,-1
 -228.349609375 487.5 l 1,4,-1
 -250 475 l 1,5,-1
 -271.650390625 487.5 l 1,6,-1
 -444.85546875 587.5 l 1,7,-1
 -444.85546875 612.5 l 1,8,-1
 -423.205078125 625 l 1,0,-1
EndSplineSet
EndChar

StartChar: d
Encoding: 100 100 8
Width: 500
Flags: W
LayerCount: 2
Fore
SplineSet
444.856445312 412.5 m 1,0,-1
 444.856445312 187.5 l 1,1,-1
 250 75 l 1,2,-1
 55.14453125 187.5 l 1,3,-1
 55.14453125 412.5 l 1,4,-1
 76.794921875 425 l 1,5,-1
 98.4462890625 412.5 l 1,6,-1
 98.4462890625 212.5 l 1,7,-1
 250 125 l 1,8,-1
 401.5546875 212.5 l 1,9,-1
 401.5546875 412.5 l 1,10,-1
 423.206054688 425 l 1,11,-1
 444.856445312 412.5 l 1,0,-1
76.794921875 425 m 1,12,-1
 444.853515625 212.5 l 1,13,-1
 444.853515625 187.5 l 1,14,-1
 423.204101562 175 l 1,15,-1
 55.14453125 387.5 l 1,16,-1
 55.14453125 412.5 l 1,17,-1
 76.794921875 425 l 1,12,-1
EndSplineSet
EndChar

StartChar: p
Encoding: 112 112 9
Width: 500
Flags: W
LayerCount: 2
Fore
SplineSet
250 525 m 1,0,-1
 444.85546875 412.5 l 1,1,-1
 444.85546875 387.5 l 1,2,-1
 423.205078125 375 l 1,3,-1
 250 475 l 1,4,-1
 98.4453125 387.5 l 1,5,-1
 98.4453125 212.5 l 1,6,-1
 250 125 l 1,7,-1
 423.205078125 225 l 1,8,-1
 444.85546875 212.5 l 1,9,-1
 444.85546875 187.5 l 1,10,-1
 250 75 l 1,11,-1
 55.14453125 187.5 l 1,12,-1
 55.14453125 412.5 l 1,13,-1
 250 525 l 1,0,-1
EndSplineSet
EndChar

StartChar: X
Encoding: 88 88 10
Width: 500
Flags: W
LayerCount: 2
Fore
SplineSet
228.349609375 87.5 m 1,0,-1
 228.348632812 112.5 l 1,1,-1
 401.553710938 212.5 l 1,2,-1
 401.553710938 387.5 l 1,3,-1
 250 475 l 1,4,-1
 76.7939453125 375 l 1,5,-1
 55.1435546875 387.5 l 1,6,-1
 55.1435546875 412.5 l 1,7,-1
 250 525 l 1,8,-1
 444.856445312 412.5 l 1,9,-1
 444.856445312 187.5 l 1,10,-1
 250 75 l 1,11,-1
 228.349609375 87.5 l 1,0,-1
76.794921875 425 m 1,12,-1
 444.853515625 212.5 l 1,13,-1
 444.853515625 187.5 l 1,14,-1
 423.204101562 175 l 1,15,-1
 55.14453125 387.5 l 1,16,-1
 55.14453125 412.5 l 1,17,-1
 76.794921875 425 l 1,12,-1
EndSplineSet
EndChar

StartChar: k
Encoding: 107 107 11
Width: 500
Flags: W
LayerCount: 2
Fore
SplineSet
250 525 m 1,0,-1
 444.85546875 412.5 l 1,1,-1
 444.85546875 187.5 l 1,2,-1
 250 75 l 1,3,-1
 55.14453125 187.5 l 1,4,-1
 55.14453125 212.5 l 1,5,-1
 76.794921875 225 l 1,6,-1
 250 125 l 1,7,-1
 401.5546875 212.5 l 1,8,-1
 401.5546875 387.5 l 1,9,-1
 228.349609375 487.5 l 1,10,-1
 228.349609375 512.5 l 1,11,-1
 250 525 l 1,0,-1
EndSplineSet
EndChar

StartChar: braceright
Encoding: 125 125 12
Width: 500
Flags: W
LayerCount: 2
Fore
SplineSet
163.396484375 625 m 1,0,-1
 271.651367188 562.500976562 l 1,1,-1
 271.651367188 362.500976562 l 1,2,-1
 336.6015625 325.000976562 l 1,3,-1
 336.603515625 325.000976562 l 1,4,-1
 358.25390625 312.500976562 l 1,5,-1
 358.25390625 287.5 l 1,6,-1
 336.603515625 275 l 1,7,-1
 336.6015625 275 l 1,8,-1
 271.650390625 237.5 l 1,9,-1
 271.650390625 37.5 l 1,10,-1
 163.396484375 -25 l 1,11,-1
 141.74609375 -12.5 l 1,12,-1
 141.74609375 12.498046875 l 1,13,-1
 228.349609375 62.5 l 1,14,-1
 228.349609375 262.5 l 1,15,-1
 293.302734375 300 l 1,16,-1
 228.349609375 337.5 l 1,17,-1
 228.349609375 537.5 l 1,18,-1
 141.74609375 587.501953125 l 1,19,-1
 141.74609375 612.5 l 1,20,-1
 163.396484375 625 l 1,0,-1
EndSplineSet
EndChar

StartChar: f
Encoding: 102 102 13
Width: 500
Flags: W
LayerCount: 2
Fore
SplineSet
250 525 m 1,0,-1
 444.85546875 412.5 l 1,1,-1
 444.85546875 187.5 l 1,2,-1
 423.205078125 175 l 1,3,-1
 401.5546875 187.5 l 1,4,-1
 401.5546875 387.5 l 1,5,-1
 250 475 l 1,6,-1
 98.4453125 387.5 l 1,7,-1
 98.4453125 187.5 l 1,8,-1
 76.794921875 175 l 1,9,-1
 55.14453125 187.5 l 1,10,-1
 55.14453125 412.5 l 1,11,-1
 250 525 l 1,0,-1
EndSplineSet
EndChar

StartChar: r
Encoding: 114 114 14
Width: 500
Flags: W
LayerCount: 2
Fore
SplineSet
250 525 m 1,0,-1
 423.205078125 425 l 1,1,-1
 444.85546875 412.5 l 1,2,-1
 444.85546875 187.5 l 1,3,-1
 423.205078125 175 l 1,4,-1
 250 75 l 1,5,-1
 76.794921875 175 l 1,6,-1
 55.14453125 187.5 l 1,7,-1
 55.14453125 412.5 l 1,8,-1
 76.794921875 425 l 1,9,-1
 250 525 l 1,0,-1
250 475 m 1,10,-1
 98.4453125 387.5 l 1,11,-1
 98.4453125 212.5 l 1,12,-1
 250 125 l 1,13,-1
 401.5546875 212.5 l 1,14,-1
 401.5546875 387.5 l 1,15,-1
 250 475 l 1,10,-1
EndSplineSet
EndChar

StartChar: s
Encoding: 115 115 15
Width: 500
Flags: W
LayerCount: 2
Fore
SplineSet
444.856445312 187.5 m 1,0,-1
 250 75 l 1,1,-1
 55.1435546875 187.5 l 1,2,-1
 55.1435546875 412.5 l 1,3,-1
 250 525 l 1,4,-1
 271.650390625 512.5 l 1,5,-1
 271.650390625 487.5 l 1,6,-1
 98.4453125 387.5 l 1,7,-1
 98.4453125 212.5 l 1,8,-1
 250 125 l 1,9,-1
 423.205078125 225 l 1,10,-1
 444.856445312 212.5 l 1,11,-1
 444.856445312 187.5 l 1,0,-1
EndSplineSet
EndChar

StartChar: g
Encoding: 103 103 16
Width: 500
Flags: W
LayerCount: 2
Fore
SplineSet
250 525 m 1,0,-1
 444.85546875 412.5 l 1,1,-1
 444.85546875 187.5 l 1,2,-1
 250 75 l 1,3,-1
 55.14453125 187.5 l 1,4,-1
 55.14453125 212.5 l 1,5,-1
 76.794921875 225 l 1,6,-1
 250 125 l 1,7,-1
 401.5546875 212.5 l 1,8,-1
 401.5546875 387.5 l 1,9,-1
 228.349609375 487.5 l 1,10,-1
 228.349609375 512.5 l 1,11,-1
 250 525 l 1,0,-1
76.794921875 425 m 1,12,-1
 444.853515625 212.5 l 1,13,-1
 444.853515625 187.5 l 1,14,-1
 423.204101562 175 l 1,15,-1
 55.14453125 387.5 l 1,16,-1
 55.14453125 412.5 l 1,17,-1
 76.794921875 425 l 1,12,-1
EndSplineSet
EndChar

StartChar: asciitilde
Encoding: 126 126 17
Width: 500
Flags: W
LayerCount: 2
Fore
SplineSet
98.4462890625 412.5 m 1,0,-1
 98.4462890625 387.5 l 1,1,-1
 98.4462890625 212.5 l 1,2,-1
 250 125 l 1,3,-1
 271.650390625 112.5 l 1,4,-1
 271.650390625 87.5 l 1,5,-1
 250 75 l 1,6,-1
 55.14453125 187.5 l 1,7,-1
 55.14453125 412.5 l 1,8,-1
 76.7958984375 425 l 1,9,-1
 98.4462890625 412.5 l 1,0,-1
444.856445312 412.5 m 1,10,-1
 444.85546875 187.5 l 1,11,-1
 423.204101562 175 l 1,12,-1
 401.553710938 187.5 l 1,13,-1
 401.553710938 387.5 l 1,14,-1
 250 475 l 1,15,-1
 228.349609375 487.5 l 1,16,-1
 228.349609375 512.5 l 1,17,-1
 250 525 l 1,18,-1
 444.856445312 412.5 l 1,10,-1
76.794921875 425 m 1,19,-1
 444.853515625 212.5 l 1,20,-1
 444.853515625 187.5 l 1,21,-1
 423.204101562 175 l 1,22,-1
 55.14453125 387.5 l 1,23,-1
 55.14453125 412.5 l 1,24,-1
 76.794921875 425 l 1,19,-1
EndSplineSet
EndChar

StartChar: j
Encoding: 106 106 18
Width: 500
Flags: W
LayerCount: 2
Fore
SplineSet
444.856445312 187.5 m 1,0,-1
 250 75 l 1,1,-1
 55.1435546875 187.5 l 1,2,-1
 55.1435546875 412.5 l 1,3,-1
 250 525 l 1,4,-1
 271.650390625 512.5 l 1,5,-1
 271.650390625 487.5 l 1,6,-1
 98.4453125 387.5 l 1,7,-1
 98.4453125 212.5 l 1,8,-1
 250 125 l 1,9,-1
 423.205078125 225 l 1,10,-1
 444.856445312 212.5 l 1,11,-1
 444.856445312 187.5 l 1,0,-1
76.794921875 425 m 1,12,-1
 444.853515625 212.5 l 1,13,-1
 444.853515625 187.5 l 1,14,-1
 423.204101562 175 l 1,15,-1
 55.14453125 387.5 l 1,16,-1
 55.14453125 412.5 l 1,17,-1
 76.794921875 425 l 1,12,-1
250 425 m 1,18,-1
 358.25390625 362.5 l 1,19,-1
 358.25390625 237.5 l 1,20,-1
 250 175 l 1,21,-1
 141.74609375 237.5 l 1,22,-1
 141.74609375 362.5 l 1,23,-1
 250 425 l 1,18,-1
250 375 m 1,24,-1
 185.048828125 337.5 l 1,25,-1
 185.048828125 262.5 l 1,26,-1
 250 225 l 1,27,-1
 314.951171875 262.5 l 1,28,-1
 314.951171875 337.5 l 1,29,-1
 250 375 l 1,24,-1
EndSplineSet
EndChar

StartChar: c
Encoding: 99 99 19
Width: 500
Flags: W
LayerCount: 2
Fore
SplineSet
250 75 m 1,0,-1
 55.14453125 187.5 l 1,1,-1
 55.14453125 212.5 l 1,2,-1
 76.794921875 225 l 1,3,-1
 250 125 l 1,4,-1
 401.5546875 212.5 l 1,5,-1
 401.5546875 387.5 l 1,6,-1
 250 475 l 1,7,-1
 76.794921875 375 l 1,8,-1
 55.14453125 387.5 l 1,9,-1
 55.14453125 412.5 l 1,10,-1
 250 525 l 1,11,-1
 444.85546875 412.5 l 1,12,-1
 444.85546875 187.5 l 1,13,-1
 250 75 l 1,0,-1
76.794921875 425 m 1,14,-1
 444.853515625 212.5 l 1,15,-1
 444.853515625 187.5 l 1,16,-1
 423.204101562 175 l 1,17,-1
 55.14453125 387.5 l 1,18,-1
 55.14453125 412.5 l 1,19,-1
 76.794921875 425 l 1,14,-1
EndSplineSet
EndChar

StartChar: w
Encoding: 119 119 20
Width: 0
GlyphClass: 4
Flags: W
LayerCount: 2
Fore
SplineSet
-423.205078125 25 m 1,0,-1
 -401.5546875 12.5 l 1,1,-1
 -250 -75 l 1,2,-1
 -98.4453125 12.5 l 1,3,-1
 -76.794921875 25 l 1,4,-1
 -55.14453125 12.5 l 1,5,-1
 -55.14453125 -12.5 l 1,6,-1
 -250 -125 l 1,7,-1
 -444.85546875 -12.5 l 1,8,-1
 -444.85546875 12.5 l 1,9,-1
 -423.205078125 25 l 1,0,-1
EndSplineSet
EndChar

StartChar: n
Encoding: 110 110 21
Width: 500
Flags: W
LayerCount: 2
Fore
SplineSet
250 525 m 1,0,-1
 444.85546875 412.5 l 1,1,-1
 444.85546875 387.5 l 1,2,-1
 423.205078125 375 l 1,3,-1
 250 475 l 1,4,-1
 98.4453125 387.5 l 1,5,-1
 98.4453125 212.5 l 1,6,-1
 271.650390625 112.5 l 1,7,-1
 271.650390625 87.5 l 1,8,-1
 250 75 l 1,9,-1
 55.14453125 187.5 l 1,10,-1
 55.14453125 412.5 l 1,11,-1
 250 525 l 1,0,-1
76.794921875 425 m 1,12,-1
 444.853515625 212.5 l 1,13,-1
 444.853515625 187.5 l 1,14,-1
 423.204101562 175 l 1,15,-1
 55.14453125 387.5 l 1,16,-1
 55.14453125 412.5 l 1,17,-1
 76.794921875 425 l 1,12,-1
EndSplineSet
EndChar

StartChar: z
Encoding: 122 122 22
Width: 500
Flags: W
LayerCount: 2
Fore
SplineSet
444.856445312 187.5 m 1,0,-1
 250 75 l 1,1,-1
 55.1435546875 187.5 l 1,2,-1
 55.1435546875 412.5 l 1,3,-1
 250 525 l 1,4,-1
 271.650390625 512.5 l 1,5,-1
 271.650390625 487.5 l 1,6,-1
 98.4453125 387.5 l 1,7,-1
 98.4453125 212.5 l 1,8,-1
 250 125 l 1,9,-1
 423.205078125 225 l 1,10,-1
 444.856445312 212.5 l 1,11,-1
 444.856445312 187.5 l 1,0,-1
76.794921875 425 m 1,12,-1
 444.853515625 212.5 l 1,13,-1
 444.853515625 187.5 l 1,14,-1
 423.204101562 175 l 1,15,-1
 55.14453125 387.5 l 1,16,-1
 55.14453125 412.5 l 1,17,-1
 76.794921875 425 l 1,12,-1
EndSplineSet
EndChar

StartChar: m
Encoding: 109 109 23
Width: 500
Flags: W
LayerCount: 2
Fore
SplineSet
250 525 m 1,0,-1
 444.85546875 412.5 l 1,1,-1
 444.85546875 387.5 l 1,2,-1
 423.205078125 375 l 1,3,-1
 250 475 l 1,4,-1
 98.4453125 387.5 l 1,5,-1
 98.4453125 212.5 l 1,6,-1
 271.650390625 112.5 l 1,7,-1
 271.650390625 87.5 l 1,8,-1
 250 75 l 1,9,-1
 55.14453125 187.5 l 1,10,-1
 55.14453125 412.5 l 1,11,-1
 250 525 l 1,0,-1
EndSplineSet
EndChar

StartChar: v
Encoding: 118 118 24
Width: 500
Flags: W
LayerCount: 2
Fore
SplineSet
250 525 m 1,0,-1
 444.85546875 412.5 l 1,1,-1
 444.85546875 187.5 l 1,2,-1
 423.205078125 175 l 1,3,-1
 401.5546875 187.5 l 1,4,-1
 401.5546875 387.5 l 1,5,-1
 250 475 l 1,6,-1
 98.4453125 387.5 l 1,7,-1
 98.4453125 187.5 l 1,8,-1
 76.794921875 175 l 1,9,-1
 55.14453125 187.5 l 1,10,-1
 55.14453125 412.5 l 1,11,-1
 250 525 l 1,0,-1
76.794921875 425 m 1,12,-1
 444.853515625 212.5 l 1,13,-1
 444.853515625 187.5 l 1,14,-1
 423.204101562 175 l 1,15,-1
 55.14453125 387.5 l 1,16,-1
 55.14453125 412.5 l 1,17,-1
 76.794921875 425 l 1,12,-1
EndSplineSet
EndChar

StartChar: b
Encoding: 98 98 25
Width: 500
Flags: W
LayerCount: 2
Fore
SplineSet
250 525 m 1,0,-1
 444.85546875 412.5 l 1,1,-1
 444.85546875 387.5 l 1,2,-1
 423.205078125 375 l 1,3,-1
 250 475 l 1,4,-1
 98.4453125 387.5 l 1,5,-1
 98.4453125 212.5 l 1,6,-1
 250 125 l 1,7,-1
 423.205078125 225 l 1,8,-1
 444.85546875 212.5 l 1,9,-1
 444.85546875 187.5 l 1,10,-1
 250 75 l 1,11,-1
 55.14453125 187.5 l 1,12,-1
 55.14453125 412.5 l 1,13,-1
 250 525 l 1,0,-1
76.794921875 425 m 1,14,-1
 444.853515625 212.5 l 1,15,-1
 444.853515625 187.5 l 1,16,-1
 423.204101562 175 l 1,17,-1
 55.14453125 387.5 l 1,18,-1
 55.14453125 412.5 l 1,19,-1
 76.794921875 425 l 1,14,-1
EndSplineSet
EndChar

StartChar: t
Encoding: 116 116 26
Width: 500
Flags: W
LayerCount: 2
Fore
SplineSet
444.856445312 412.5 m 1,0,-1
 444.856445312 187.5 l 1,1,-1
 250 75 l 1,2,-1
 55.14453125 187.5 l 1,3,-1
 55.14453125 412.5 l 1,4,-1
 76.794921875 425 l 1,5,-1
 98.4462890625 412.5 l 1,6,-1
 98.4462890625 212.5 l 1,7,-1
 250 125 l 1,8,-1
 401.5546875 212.5 l 1,9,-1
 401.5546875 412.5 l 1,10,-1
 423.206054688 425 l 1,11,-1
 444.856445312 412.5 l 1,0,-1
EndSplineSet
EndChar

StartChar: grave
Encoding: 96 96 27
Width: 500
Flags: W
LayerCount: 2
Fore
SplineSet
250 525 m 1,0,-1
 444.85546875 412.5 l 1,1,-1
 444.85546875 387.5 l 1,2,-1
 423.205078125 375 l 1,3,-1
 401.5546875 387.5 l 1,4,-1
 250 475 l 1,5,-1
 228.349609375 487.5 l 1,6,-1
 228.349609375 512.5 l 1,7,-1
 250 525 l 1,0,-1
EndSplineSet
EndChar

StartChar: H
Encoding: 72 72 28
Width: 500
Flags: W
LayerCount: 2
Fore
SplineSet
228.349609375 87.5 m 1,0,-1
 228.348632812 112.5 l 1,1,-1
 401.553710938 212.5 l 1,2,-1
 401.553710938 387.5 l 1,3,-1
 250 475 l 1,4,-1
 76.7939453125 375 l 1,5,-1
 55.1435546875 387.5 l 1,6,-1
 55.1435546875 412.5 l 1,7,-1
 250 525 l 1,8,-1
 444.856445312 412.5 l 1,9,-1
 444.856445312 187.5 l 1,10,-1
 250 75 l 1,11,-1
 228.349609375 87.5 l 1,0,-1
EndSplineSet
EndChar

StartChar: braceleft
Encoding: 123 123 29
Width: 500
Flags: W
LayerCount: 2
Fore
SplineSet
336.603515625 625 m 1,0,-1
 358.25390625 612.5 l 1,1,-1
 358.25390625 587.501953125 l 1,2,-1
 271.650390625 537.5 l 1,3,-1
 271.650390625 337.5 l 1,4,-1
 206.697265625 300 l 1,5,-1
 271.650390625 262.5 l 1,6,-1
 271.650390625 62.5 l 1,7,-1
 358.25390625 12.498046875 l 1,8,-1
 358.25390625 -12.5 l 1,9,-1
 336.603515625 -25 l 1,10,-1
 228.349609375 37.5 l 1,11,-1
 228.349609375 237.5 l 1,12,-1
 163.3984375 275 l 1,13,-1
 163.396484375 275 l 1,14,-1
 141.74609375 287.5 l 1,15,-1
 141.74609375 312.5 l 1,16,-1
 163.396484375 325 l 1,17,-1
 163.3984375 325 l 1,18,-1
 228.349609375 362.5 l 1,19,-1
 228.349609375 562.5 l 1,20,-1
 336.603515625 625 l 1,0,-1
EndSplineSet
EndChar

StartChar: o
Encoding: 111 111 30
Width: 0
GlyphClass: 4
Flags: W
LayerCount: 2
Fore
SplineSet
-250 125 m 1,0,-1
 -228.349609375 112.5 l 1,1,-1
 -76.794921875 25 l 1,2,-1
 -55.14453125 12.5 l 1,3,-1
 -55.14453125 -12.5 l 1,4,-1
 -76.794921875 -25 l 1,5,-1
 -250 -125 l 1,6,-1
 -444.85546875 -12.5 l 1,7,-1
 -444.85546875 12.5 l 1,8,-1
 -423.205078125 25 l 1,9,-1
 -401.5546875 12.5 l 1,10,-1
 -250 -75 l 1,11,-1
 -120.095703125 0 l 1,12,-1
 -250 75 l 1,13,-1
 -271.650390625 87.5 l 1,14,-1
 -271.650390625 112.5 l 1,15,-1
 -250 125 l 1,0,-1
EndSplineSet
EndChar

StartChar: bar
Encoding: 124 124 31
Width: 500
Flags: W
LayerCount: 2
Fore
SplineSet
271.650390625 712.5 m 1,0,-1
 271.650390625 -112.5 l 1,1,-1
 250 -125 l 1,2,-1
 228.349609375 -112.5 l 1,3,-1
 228.349609375 712.5 l 1,4,-1
 250 725 l 1,5,-1
 271.650390625 712.5 l 1,0,-1
EndSplineSet
EndChar

StartChar: I
Encoding: 73 73 32
Width: 0
GlyphClass: 4
Flags: W
LayerCount: 2
Fore
SplineSet
-250 725 m 1,0,-1
 -55.14453125 612.5 l 1,1,-1
 -55.14453125 587.5 l 1,2,-1
 -76.794921875 575 l 1,3,-1
 -98.4453125 587.5 l 1,4,-1
 -250 675 l 1,5,-1
 -401.5546875 587.5 l 1,6,-1
 -423.205078125 575 l 1,7,-1
 -444.85546875 587.5 l 1,8,-1
 -444.85546875 612.5 l 1,9,-1
 -250 725 l 1,0,-1
EndSplineSet
EndChar

StartChar: a
Encoding: 97 97 33
Width: 0
GlyphClass: 4
Flags: W
LayerCount: 2
Fore
SplineSet
-250 725 m 1,0,-1
 -55.14453125 612.5 l 1,1,-1
 -55.14453125 587.5 l 1,2,-1
 -76.794921875 575 l 1,3,-1
 -98.4453125 587.5 l 1,4,-1
 -250 675 l 1,5,-1
 -379.904296875 600 l 1,6,-1
 -250 525 l 1,7,-1
 -228.349609375 512.5 l 1,8,-1
 -228.349609375 487.5 l 1,9,-1
 -250 475 l 1,10,-1
 -271.650390625 487.5 l 1,11,-1
 -423.205078125 575 l 1,12,-1
 -444.85546875 587.5 l 1,13,-1
 -444.85546875 612.5 l 1,14,-1
 -423.205078125 625 l 1,15,-1
 -250 725 l 1,0,-1
EndSplineSet
EndChar

StartChar: u
Encoding: 117 117 34
Width: 0
GlyphClass: 4
Flags: W
LayerCount: 2
Fore
SplineSet
-250 125 m 1,0,-1
 -228.349609375 112.5 l 1,1,-1
 -55.14453125 12.5 l 1,2,-1
 -55.14453125 -12.5 l 1,3,-1
 -76.794921875 -25 l 1,4,-1
 -98.4453125 -12.5 l 1,5,-1
 -250 75 l 1,6,-1
 -271.650390625 87.5 l 1,7,-1
 -271.650390625 112.5 l 1,8,-1
 -250 125 l 1,0,-1
EndSplineSet
EndChar

StartChar: underscore
Encoding: 95 95 35
Width: 500
Flags: W
LayerCount: 2
Fore
SplineSet
76.794921875 225 m 1,0,-1
 98.4453125 212.5 l 1,1,-1
 250 125 l 1,2,-1
 401.5546875 212.5 l 1,3,-1
 423.205078125 225 l 1,4,-1
 444.85546875 212.5 l 1,5,-1
 444.85546875 187.5 l 1,6,-1
 250 75 l 1,7,-1
 55.14453125 187.5 l 1,8,-1
 55.14453125 212.5 l 1,9,-1
 76.794921875 225 l 1,0,-1
EndSplineSet
EndChar

StartChar: K
Encoding: 75 75 36
Width: 500
Flags: W
LayerCount: 2
Fore
SplineSet
250 525 m 1,0,-1
 444.85546875 412.5 l 1,1,-1
 444.85546875 187.5 l 1,2,-1
 250 75 l 1,3,-1
 55.14453125 187.5 l 1,4,-1
 55.14453125 212.5 l 1,5,-1
 76.794921875 225 l 1,6,-1
 250 125 l 1,7,-1
 401.5546875 212.5 l 1,8,-1
 401.5546875 387.5 l 1,9,-1
 228.349609375 487.5 l 1,10,-1
 228.349609375 512.5 l 1,11,-1
 250 525 l 1,0,-1
EndSplineSet
EndChar

StartChar: x
Encoding: 120 120 37
Width: 500
Flags: W
LayerCount: 2
Fore
SplineSet
228.349609375 87.5 m 1,0,-1
 228.348632812 112.5 l 1,1,-1
 401.553710938 212.5 l 1,2,-1
 401.553710938 387.5 l 1,3,-1
 250 475 l 1,4,-1
 76.7939453125 375 l 1,5,-1
 55.1435546875 387.5 l 1,6,-1
 55.1435546875 412.5 l 1,7,-1
 250 525 l 1,8,-1
 444.856445312 412.5 l 1,9,-1
 444.856445312 187.5 l 1,10,-1
 250 75 l 1,11,-1
 228.349609375 87.5 l 1,0,-1
76.794921875 425 m 1,12,-1
 444.853515625 212.5 l 1,13,-1
 444.853515625 187.5 l 1,14,-1
 423.204101562 175 l 1,15,-1
 55.14453125 387.5 l 1,16,-1
 55.14453125 412.5 l 1,17,-1
 76.794921875 425 l 1,12,-1
EndSplineSet
EndChar

StartChar: P
Encoding: 80 80 38
Width: 500
Flags: W
LayerCount: 2
Fore
SplineSet
250 525 m 1,0,-1
 444.85546875 412.5 l 1,1,-1
 444.85546875 387.5 l 1,2,-1
 423.205078125 375 l 1,3,-1
 250 475 l 1,4,-1
 98.4453125 387.5 l 1,5,-1
 98.4453125 212.5 l 1,6,-1
 250 125 l 1,7,-1
 423.205078125 225 l 1,8,-1
 444.85546875 212.5 l 1,9,-1
 444.85546875 187.5 l 1,10,-1
 250 75 l 1,11,-1
 55.14453125 187.5 l 1,12,-1
 55.14453125 412.5 l 1,13,-1
 250 525 l 1,0,-1
EndSplineSet
EndChar

StartChar: D
Encoding: 68 68 39
Width: 500
Flags: W
LayerCount: 2
Fore
SplineSet
444.856445312 412.5 m 1,0,-1
 444.856445312 187.5 l 1,1,-1
 250 75 l 1,2,-1
 55.14453125 187.5 l 1,3,-1
 55.14453125 412.5 l 1,4,-1
 76.794921875 425 l 1,5,-1
 98.4462890625 412.5 l 1,6,-1
 98.4462890625 212.5 l 1,7,-1
 250 125 l 1,8,-1
 401.5546875 212.5 l 1,9,-1
 401.5546875 412.5 l 1,10,-1
 423.206054688 425 l 1,11,-1
 444.856445312 412.5 l 1,0,-1
76.794921875 425 m 1,12,-1
 444.853515625 212.5 l 1,13,-1
 444.853515625 187.5 l 1,14,-1
 423.204101562 175 l 1,15,-1
 55.14453125 387.5 l 1,16,-1
 55.14453125 412.5 l 1,17,-1
 76.794921875 425 l 1,12,-1
EndSplineSet
EndChar

StartChar: E
Encoding: 69 69 40
Width: 0
GlyphClass: 4
Flags: W
LayerCount: 2
Fore
SplineSet
-423.205078125 625 m 1,0,-1
 -401.5546875 612.5 l 1,1,-1
 -250 525 l 1,2,-1
 -228.349609375 512.5 l 1,3,-1
 -228.349609375 487.5 l 1,4,-1
 -250 475 l 1,5,-1
 -271.650390625 487.5 l 1,6,-1
 -444.85546875 587.5 l 1,7,-1
 -444.85546875 612.5 l 1,8,-1
 -423.205078125 625 l 1,0,-1
EndSplineSet
EndChar

StartChar: Q
Encoding: 81 81 41
Width: 500
Flags: W
LayerCount: 2
Fore
SplineSet
250 75 m 1,0,-1
 55.14453125 187.5 l 1,1,-1
 55.14453125 212.5 l 1,2,-1
 76.794921875 225 l 1,3,-1
 250 125 l 1,4,-1
 401.5546875 212.5 l 1,5,-1
 401.5546875 387.5 l 1,6,-1
 250 475 l 1,7,-1
 76.794921875 375 l 1,8,-1
 55.14453125 387.5 l 1,9,-1
 55.14453125 412.5 l 1,10,-1
 250 525 l 1,11,-1
 444.85546875 412.5 l 1,12,-1
 444.85546875 187.5 l 1,13,-1
 250 75 l 1,0,-1
EndSplineSet
EndChar

StartChar: y
Encoding: 121 121 42
Width: 500
Flags: W
LayerCount: 2
Fore
SplineSet
250 75 m 1,0,-1
 55.14453125 187.5 l 1,1,-1
 55.14453125 212.5 l 1,2,-1
 76.794921875 225 l 1,3,-1
 250 125 l 1,4,-1
 401.5546875 212.5 l 1,5,-1
 401.5546875 387.5 l 1,6,-1
 250 475 l 1,7,-1
 76.794921875 375 l 1,8,-1
 55.14453125 387.5 l 1,9,-1
 55.14453125 412.5 l 1,10,-1
 250 525 l 1,11,-1
 444.85546875 412.5 l 1,12,-1
 444.85546875 187.5 l 1,13,-1
 250 75 l 1,0,-1
76.794921875 425 m 1,14,-1
 444.853515625 212.5 l 1,15,-1
 444.853515625 187.5 l 1,16,-1
 423.204101562 175 l 1,17,-1
 55.14453125 387.5 l 1,18,-1
 55.14453125 412.5 l 1,19,-1
 76.794921875 425 l 1,14,-1
250 425 m 1,20,-1
 358.25390625 362.5 l 1,21,-1
 358.25390625 237.5 l 1,22,-1
 250 175 l 1,23,-1
 141.74609375 237.5 l 1,24,-1
 141.74609375 362.5 l 1,25,-1
 250 425 l 1,20,-1
250 375 m 1,26,-1
 185.048828125 337.5 l 1,27,-1
 185.048828125 262.5 l 1,28,-1
 250 225 l 1,29,-1
 314.951171875 262.5 l 1,30,-1
 314.951171875 337.5 l 1,31,-1
 250 375 l 1,26,-1
EndSplineSet
EndChar

StartChar: L
Encoding: 76 76 43
Width: 500
Flags: W
LayerCount: 2
Fore
SplineSet
250 525 m 1,0,-1
 423.205078125 425 l 1,1,-1
 444.85546875 412.5 l 1,2,-1
 444.85546875 187.5 l 1,3,-1
 423.205078125 175 l 1,4,-1
 250 75 l 1,5,-1
 76.794921875 175 l 1,6,-1
 55.14453125 187.5 l 1,7,-1
 55.14453125 412.5 l 1,8,-1
 76.794921875 425 l 1,9,-1
 250 525 l 1,0,-1
250 475 m 1,10,-1
 98.4453125 387.5 l 1,11,-1
 98.4453125 212.5 l 1,12,-1
 250 125 l 1,13,-1
 401.5546875 212.5 l 1,14,-1
 401.5546875 387.5 l 1,15,-1
 250 475 l 1,10,-1
76.794921875 425 m 1,16,-1
 444.853515625 212.5 l 1,17,-1
 444.853515625 187.5 l 1,18,-1
 423.204101562 175 l 1,19,-1
 55.14453125 387.5 l 1,20,-1
 55.14453125 412.5 l 1,21,-1
 76.794921875 425 l 1,16,-1
EndSplineSet
EndChar

StartChar: J
Encoding: 74 74 44
Width: 500
Flags: W
LayerCount: 2
Fore
SplineSet
444.856445312 187.5 m 1,0,-1
 250 75 l 1,1,-1
 55.1435546875 187.5 l 1,2,-1
 55.1435546875 412.5 l 1,3,-1
 250 525 l 1,4,-1
 271.650390625 512.5 l 1,5,-1
 271.650390625 487.5 l 1,6,-1
 98.4453125 387.5 l 1,7,-1
 98.4453125 212.5 l 1,8,-1
 250 125 l 1,9,-1
 423.205078125 225 l 1,10,-1
 444.856445312 212.5 l 1,11,-1
 444.856445312 187.5 l 1,0,-1
76.794921875 425 m 1,12,-1
 444.853515625 212.5 l 1,13,-1
 444.853515625 187.5 l 1,14,-1
 423.204101562 175 l 1,15,-1
 55.14453125 387.5 l 1,16,-1
 55.14453125 412.5 l 1,17,-1
 76.794921875 425 l 1,12,-1
250 425 m 1,18,-1
 358.25390625 362.5 l 1,19,-1
 358.25390625 237.5 l 1,20,-1
 250 175 l 1,21,-1
 141.74609375 237.5 l 1,22,-1
 141.74609375 362.5 l 1,23,-1
 250 425 l 1,18,-1
250 375 m 1,24,-1
 185.048828125 337.5 l 1,25,-1
 185.048828125 262.5 l 1,26,-1
 250 225 l 1,27,-1
 314.951171875 262.5 l 1,28,-1
 314.951171875 337.5 l 1,29,-1
 250 375 l 1,24,-1
EndSplineSet
EndChar

StartChar: asciicircum
Encoding: 94 94 45
Width: 500
Flags: W
LayerCount: 2
Fore
SplineSet
250 525 m 1,0,-1
 444.85546875 412.5 l 1,1,-1
 444.85546875 387.5 l 1,2,-1
 423.205078125 375 l 1,3,-1
 401.5546875 387.5 l 1,4,-1
 250 475 l 1,5,-1
 98.4453125 387.5 l 1,6,-1
 76.794921875 375 l 1,7,-1
 55.14453125 387.5 l 1,8,-1
 55.14453125 412.5 l 1,9,-1
 250 525 l 1,0,-1
EndSplineSet
EndChar

StartChar: G
Encoding: 71 71 46
Width: 500
Flags: W
LayerCount: 2
Fore
SplineSet
250 525 m 1,0,-1
 444.85546875 412.5 l 1,1,-1
 444.85546875 187.5 l 1,2,-1
 250 75 l 1,3,-1
 55.14453125 187.5 l 1,4,-1
 55.14453125 212.5 l 1,5,-1
 76.794921875 225 l 1,6,-1
 250 125 l 1,7,-1
 401.5546875 212.5 l 1,8,-1
 401.5546875 387.5 l 1,9,-1
 228.349609375 487.5 l 1,10,-1
 228.349609375 512.5 l 1,11,-1
 250 525 l 1,0,-1
76.794921875 425 m 1,12,-1
 444.853515625 212.5 l 1,13,-1
 444.853515625 187.5 l 1,14,-1
 423.204101562 175 l 1,15,-1
 55.14453125 387.5 l 1,16,-1
 55.14453125 412.5 l 1,17,-1
 76.794921875 425 l 1,12,-1
EndSplineSet
EndChar

StartChar: S
Encoding: 83 83 47
Width: 500
Flags: W
LayerCount: 2
Fore
SplineSet
444.856445312 187.5 m 1,0,-1
 250 75 l 1,1,-1
 55.1435546875 187.5 l 1,2,-1
 55.1435546875 412.5 l 1,3,-1
 250 525 l 1,4,-1
 271.650390625 512.5 l 1,5,-1
 271.650390625 487.5 l 1,6,-1
 98.4453125 387.5 l 1,7,-1
 98.4453125 212.5 l 1,8,-1
 250 125 l 1,9,-1
 423.205078125 225 l 1,10,-1
 444.856445312 212.5 l 1,11,-1
 444.856445312 187.5 l 1,0,-1
EndSplineSet
EndChar

StartChar: R
Encoding: 82 82 48
Width: 500
Flags: W
LayerCount: 2
Fore
SplineSet
250 525 m 1,0,-1
 423.205078125 425 l 1,1,-1
 444.85546875 412.5 l 1,2,-1
 444.85546875 187.5 l 1,3,-1
 423.205078125 175 l 1,4,-1
 250 75 l 1,5,-1
 76.794921875 175 l 1,6,-1
 55.14453125 187.5 l 1,7,-1
 55.14453125 412.5 l 1,8,-1
 76.794921875 425 l 1,9,-1
 250 525 l 1,0,-1
250 475 m 1,10,-1
 98.4453125 387.5 l 1,11,-1
 98.4453125 212.5 l 1,12,-1
 250 125 l 1,13,-1
 401.5546875 212.5 l 1,14,-1
 401.5546875 387.5 l 1,15,-1
 250 475 l 1,10,-1
EndSplineSet
EndChar

StartChar: F
Encoding: 70 70 49
Width: 500
Flags: W
LayerCount: 2
Fore
SplineSet
250 525 m 1,0,-1
 444.85546875 412.5 l 1,1,-1
 444.85546875 187.5 l 1,2,-1
 423.205078125 175 l 1,3,-1
 401.5546875 187.5 l 1,4,-1
 401.5546875 387.5 l 1,5,-1
 250 475 l 1,6,-1
 98.4453125 387.5 l 1,7,-1
 98.4453125 187.5 l 1,8,-1
 76.794921875 175 l 1,9,-1
 55.14453125 187.5 l 1,10,-1
 55.14453125 412.5 l 1,11,-1
 250 525 l 1,0,-1
EndSplineSet
EndChar

StartChar: bracketright
Encoding: 93 93 50
Width: 500
Flags: W
LayerCount: 2
Fore
SplineSet
250 625 m 1,0,-1
 358.25390625 562.5 l 1,1,-1
 358.25390625 37.5 l 1,2,-1
 250 -25 l 1,3,-1
 141.74609375 37.5 l 1,4,-1
 141.74609375 62.5 l 1,5,-1
 163.396484375 75 l 1,6,-1
 250 25 l 1,7,-1
 314.951171875 62.5 l 1,8,-1
 314.951171875 537.5 l 1,9,-1
 250 575 l 1,10,-1
 163.396484375 525 l 1,11,-1
 141.74609375 537.5 l 1,12,-1
 141.74609375 562.5 l 1,13,-1
 250 625 l 1,0,-1
EndSplineSet
EndChar

StartChar: B
Encoding: 66 66 51
Width: 500
Flags: W
LayerCount: 2
Fore
SplineSet
250 525 m 1,0,-1
 444.85546875 412.5 l 1,1,-1
 444.85546875 387.5 l 1,2,-1
 423.205078125 375 l 1,3,-1
 250 475 l 1,4,-1
 98.4453125 387.5 l 1,5,-1
 98.4453125 212.5 l 1,6,-1
 250 125 l 1,7,-1
 423.205078125 225 l 1,8,-1
 444.85546875 212.5 l 1,9,-1
 444.85546875 187.5 l 1,10,-1
 250 75 l 1,11,-1
 55.14453125 187.5 l 1,12,-1
 55.14453125 412.5 l 1,13,-1
 250 525 l 1,0,-1
76.794921875 425 m 1,14,-1
 444.853515625 212.5 l 1,15,-1
 444.853515625 187.5 l 1,16,-1
 423.204101562 175 l 1,17,-1
 55.14453125 387.5 l 1,18,-1
 55.14453125 412.5 l 1,19,-1
 76.794921875 425 l 1,14,-1
EndSplineSet
EndChar

StartChar: V
Encoding: 86 86 52
Width: 500
Flags: W
LayerCount: 2
Fore
SplineSet
250 525 m 1,0,-1
 444.85546875 412.5 l 1,1,-1
 444.85546875 187.5 l 1,2,-1
 423.205078125 175 l 1,3,-1
 401.5546875 187.5 l 1,4,-1
 401.5546875 387.5 l 1,5,-1
 250 475 l 1,6,-1
 98.4453125 387.5 l 1,7,-1
 98.4453125 187.5 l 1,8,-1
 76.794921875 175 l 1,9,-1
 55.14453125 187.5 l 1,10,-1
 55.14453125 412.5 l 1,11,-1
 250 525 l 1,0,-1
76.794921875 425 m 1,12,-1
 444.853515625 212.5 l 1,13,-1
 444.853515625 187.5 l 1,14,-1
 423.204101562 175 l 1,15,-1
 55.14453125 387.5 l 1,16,-1
 55.14453125 412.5 l 1,17,-1
 76.794921875 425 l 1,12,-1
EndSplineSet
EndChar

StartChar: M
Encoding: 77 77 53
Width: 500
Flags: W
LayerCount: 2
Fore
SplineSet
250 525 m 1,0,-1
 444.85546875 412.5 l 1,1,-1
 444.85546875 387.5 l 1,2,-1
 423.205078125 375 l 1,3,-1
 250 475 l 1,4,-1
 98.4453125 387.5 l 1,5,-1
 98.4453125 212.5 l 1,6,-1
 271.650390625 112.5 l 1,7,-1
 271.650390625 87.5 l 1,8,-1
 250 75 l 1,9,-1
 55.14453125 187.5 l 1,10,-1
 55.14453125 412.5 l 1,11,-1
 250 525 l 1,0,-1
EndSplineSet
EndChar

StartChar: Z
Encoding: 90 90 54
Width: 500
Flags: W
LayerCount: 2
Fore
SplineSet
444.856445312 187.5 m 1,0,-1
 250 75 l 1,1,-1
 55.1435546875 187.5 l 1,2,-1
 55.1435546875 412.5 l 1,3,-1
 250 525 l 1,4,-1
 271.650390625 512.5 l 1,5,-1
 271.650390625 487.5 l 1,6,-1
 98.4453125 387.5 l 1,7,-1
 98.4453125 212.5 l 1,8,-1
 250 125 l 1,9,-1
 423.205078125 225 l 1,10,-1
 444.856445312 212.5 l 1,11,-1
 444.856445312 187.5 l 1,0,-1
76.794921875 425 m 1,12,-1
 444.853515625 212.5 l 1,13,-1
 444.853515625 187.5 l 1,14,-1
 423.204101562 175 l 1,15,-1
 55.14453125 387.5 l 1,16,-1
 55.14453125 412.5 l 1,17,-1
 76.794921875 425 l 1,12,-1
EndSplineSet
EndChar

StartChar: N
Encoding: 78 78 55
Width: 500
Flags: W
LayerCount: 2
Fore
SplineSet
250 525 m 1,0,-1
 444.85546875 412.5 l 1,1,-1
 444.85546875 387.5 l 1,2,-1
 423.205078125 375 l 1,3,-1
 250 475 l 1,4,-1
 98.4453125 387.5 l 1,5,-1
 98.4453125 212.5 l 1,6,-1
 271.650390625 112.5 l 1,7,-1
 271.650390625 87.5 l 1,8,-1
 250 75 l 1,9,-1
 55.14453125 187.5 l 1,10,-1
 55.14453125 412.5 l 1,11,-1
 250 525 l 1,0,-1
76.794921875 425 m 1,12,-1
 444.853515625 212.5 l 1,13,-1
 444.853515625 187.5 l 1,14,-1
 423.204101562 175 l 1,15,-1
 55.14453125 387.5 l 1,16,-1
 55.14453125 412.5 l 1,17,-1
 76.794921875 425 l 1,12,-1
EndSplineSet
EndChar

StartChar: W
Encoding: 87 87 56
Width: 0
GlyphClass: 4
Flags: W
LayerCount: 2
Fore
SplineSet
-423.205078125 25 m 1,0,-1
 -401.5546875 12.5 l 1,1,-1
 -250 -75 l 1,2,-1
 -98.4453125 12.5 l 1,3,-1
 -76.794921875 25 l 1,4,-1
 -55.14453125 12.5 l 1,5,-1
 -55.14453125 -12.5 l 1,6,-1
 -250 -125 l 1,7,-1
 -444.85546875 -12.5 l 1,8,-1
 -444.85546875 12.5 l 1,9,-1
 -423.205078125 25 l 1,0,-1
EndSplineSet
EndChar

StartChar: C
Encoding: 67 67 57
Width: 500
Flags: W
LayerCount: 2
Fore
SplineSet
250 75 m 1,0,-1
 55.14453125 187.5 l 1,1,-1
 55.14453125 212.5 l 1,2,-1
 76.794921875 225 l 1,3,-1
 250 125 l 1,4,-1
 401.5546875 212.5 l 1,5,-1
 401.5546875 387.5 l 1,6,-1
 250 475 l 1,7,-1
 76.794921875 375 l 1,8,-1
 55.14453125 387.5 l 1,9,-1
 55.14453125 412.5 l 1,10,-1
 250 525 l 1,11,-1
 444.85546875 412.5 l 1,12,-1
 444.85546875 187.5 l 1,13,-1
 250 75 l 1,0,-1
76.794921875 425 m 1,14,-1
 444.853515625 212.5 l 1,15,-1
 444.853515625 187.5 l 1,16,-1
 423.204101562 175 l 1,17,-1
 55.14453125 387.5 l 1,18,-1
 55.14453125 412.5 l 1,19,-1
 76.794921875 425 l 1,14,-1
EndSplineSet
EndChar

StartChar: U
Encoding: 85 85 58
Width: 0
GlyphClass: 4
Flags: W
LayerCount: 2
Fore
SplineSet
-250 125 m 1,0,-1
 -228.349609375 112.5 l 1,1,-1
 -55.14453125 12.5 l 1,2,-1
 -55.14453125 -12.5 l 1,3,-1
 -76.794921875 -25 l 1,4,-1
 -98.4453125 -12.5 l 1,5,-1
 -250 75 l 1,6,-1
 -271.650390625 87.5 l 1,7,-1
 -271.650390625 112.5 l 1,8,-1
 -250 125 l 1,0,-1
EndSplineSet
EndChar

StartChar: A
Encoding: 65 65 59
Width: 0
GlyphClass: 5
Flags: W
LayerCount: 2
Fore
SplineSet
-250 725 m 1,0,-1
 -55.14453125 612.5 l 1,1,-1
 -55.14453125 587.5 l 1,2,-1
 -76.794921875 575 l 1,3,-1
 -98.4453125 587.5 l 1,4,-1
 -250 675 l 1,5,-1
 -379.904296875 600 l 1,6,-1
 -250 525 l 1,7,-1
 -228.349609375 512.5 l 1,8,-1
 -228.349609375 487.5 l 1,9,-1
 -250 475 l 1,10,-1
 -271.650390625 487.5 l 1,11,-1
 -423.205078125 575 l 1,12,-1
 -444.85546875 587.5 l 1,13,-1
 -444.85546875 612.5 l 1,14,-1
 -423.205078125 625 l 1,15,-1
 -250 725 l 1,0,-1
EndSplineSet
EndChar

StartChar: i
Encoding: 105 105 60
Width: 0
GlyphClass: 4
Flags: W
LayerCount: 2
Fore
SplineSet
-250 725 m 1,0,-1
 -55.14453125 612.5 l 1,1,-1
 -55.14453125 587.5 l 1,2,-1
 -76.794921875 575 l 1,3,-1
 -98.4453125 587.5 l 1,4,-1
 -250 675 l 1,5,-1
 -401.5546875 587.5 l 1,6,-1
 -423.205078125 575 l 1,7,-1
 -444.85546875 587.5 l 1,8,-1
 -444.85546875 612.5 l 1,9,-1
 -250 725 l 1,0,-1
EndSplineSet
EndChar

StartChar: backslash
Encoding: 92 92 61
Width: 500
Flags: W
LayerCount: 2
Fore
SplineSet
76.794921875 425 m 1,0,-1
 444.853515625 212.5 l 1,1,-1
 444.853515625 187.5 l 1,2,-1
 423.204101562 175 l 1,3,-1
 55.14453125 387.5 l 1,4,-1
 55.14453125 412.5 l 1,5,-1
 76.794921875 425 l 1,0,-1
EndSplineSet
EndChar

StartChar: O
Encoding: 79 79 62
Width: 0
GlyphClass: 4
Flags: W
LayerCount: 2
Fore
SplineSet
-250 125 m 1,0,-1
 -228.349609375 112.5 l 1,1,-1
 -76.794921875 25 l 1,2,-1
 -55.14453125 12.5 l 1,3,-1
 -55.14453125 -12.5 l 1,4,-1
 -76.794921875 -25 l 1,5,-1
 -250 -125 l 1,6,-1
 -444.85546875 -12.5 l 1,7,-1
 -444.85546875 12.5 l 1,8,-1
 -423.205078125 25 l 1,9,-1
 -401.5546875 12.5 l 1,10,-1
 -250 -75 l 1,11,-1
 -120.095703125 0 l 1,12,-1
 -250 75 l 1,13,-1
 -271.650390625 87.5 l 1,14,-1
 -271.650390625 112.5 l 1,15,-1
 -250 125 l 1,0,-1
EndSplineSet
EndChar

StartChar: bracketleft
Encoding: 91 91 63
Width: 500
Flags: W
LayerCount: 2
Fore
SplineSet
250 625 m 1,0,-1
 358.25390625 562.5 l 1,1,-1
 358.25390625 537.5 l 1,2,-1
 336.603515625 525 l 1,3,-1
 250 575 l 1,4,-1
 185.048828125 537.5 l 1,5,-1
 185.048828125 62.5 l 1,6,-1
 250 25 l 1,7,-1
 336.603515625 75 l 1,8,-1
 358.25390625 62.5 l 1,9,-1
 358.25390625 37.5 l 1,10,-1
 250 -25 l 1,11,-1
 141.74609375 37.5 l 1,12,-1
 141.74609375 562.5 l 1,13,-1
 250 625 l 1,0,-1
EndSplineSet
EndChar

StartChar: h
Encoding: 104 104 64
Width: 500
Flags: W
LayerCount: 2
Fore
SplineSet
228.349609375 87.5 m 1,0,-1
 228.348632812 112.5 l 1,1,-1
 401.553710938 212.5 l 1,2,-1
 401.553710938 387.5 l 1,3,-1
 250 475 l 1,4,-1
 76.7939453125 375 l 1,5,-1
 55.1435546875 387.5 l 1,6,-1
 55.1435546875 412.5 l 1,7,-1
 250 525 l 1,8,-1
 444.856445312 412.5 l 1,9,-1
 444.856445312 187.5 l 1,10,-1
 250 75 l 1,11,-1
 228.349609375 87.5 l 1,0,-1
EndSplineSet
EndChar

StartChar: at
Encoding: 64 64 65
Width: 500
Flags: W
LayerCount: 2
Fore
SplineSet
250 525 m 1,0,-1
 423.205078125 425 l 1,1,-1
 444.85546875 412.5 l 1,2,-1
 444.85546875 187.5 l 1,3,-1
 423.205078125 175 l 1,4,-1
 250 75 l 1,5,-1
 76.794921875 175 l 1,6,-1
 55.14453125 187.5 l 1,7,-1
 55.14453125 412.5 l 1,8,-1
 76.794921875 425 l 1,9,-1
 250 525 l 1,0,-1
250 475 m 1,10,-1
 98.4453125 387.5 l 1,11,-1
 98.4453125 212.5 l 1,12,-1
 250 125 l 1,13,-1
 401.5546875 212.5 l 1,14,-1
 401.5546875 387.5 l 1,15,-1
 250 475 l 1,10,-1
250 425 m 1,16,-1
 358.25390625 362.5 l 1,17,-1
 358.25390625 237.5 l 1,18,-1
 250 175 l 1,19,-1
 141.74609375 237.5 l 1,20,-1
 141.74609375 362.5 l 1,21,-1
 250 425 l 1,16,-1
250 375 m 1,22,-1
 185.048828125 337.5 l 1,23,-1
 185.048828125 262.5 l 1,24,-1
 250 225 l 1,25,-1
 314.951171875 262.5 l 1,26,-1
 314.951171875 337.5 l 1,27,-1
 250 375 l 1,22,-1
76.794921875 425 m 1,28,-1
 444.853515625 212.5 l 1,29,-1
 444.853515625 187.5 l 1,30,-1
 423.204101562 175 l 1,31,-1
 55.14453125 387.5 l 1,32,-1
 55.14453125 412.5 l 1,33,-1
 76.794921875 425 l 1,28,-1
EndSplineSet
EndChar

StartChar: T
Encoding: 84 84 66
Width: 500
Flags: W
LayerCount: 2
Fore
SplineSet
444.856445312 412.5 m 1,0,-1
 444.856445312 187.5 l 1,1,-1
 250 75 l 1,2,-1
 55.14453125 187.5 l 1,3,-1
 55.14453125 412.5 l 1,4,-1
 76.794921875 425 l 1,5,-1
 98.4462890625 412.5 l 1,6,-1
 98.4462890625 212.5 l 1,7,-1
 250 125 l 1,8,-1
 401.5546875 212.5 l 1,9,-1
 401.5546875 412.5 l 1,10,-1
 423.206054688 425 l 1,11,-1
 444.856445312 412.5 l 1,0,-1
EndSplineSet
EndChar

StartChar: greater
Encoding: 62 62 67
Width: 500
Flags: W
LayerCount: 2
Fore
SplineSet
250 175 m 1,0,-1
 141.74609375 237.5 l 1,1,-1
 141.74609375 262.5 l 1,2,-1
 163.396484375 275 l 1,3,-1
 250 225 l 1,4,-1
 314.951171875 262.5 l 1,5,-1
 314.951171875 337.5 l 1,6,-1
 250 375 l 1,7,-1
 163.396484375 325 l 1,8,-1
 141.74609375 337.5 l 1,9,-1
 141.74609375 362.5 l 1,10,-1
 250 425 l 1,11,-1
 358.25390625 362.5 l 1,12,-1
 358.25390625 237.5 l 1,13,-1
 250 175 l 1,0,-1
EndSplineSet
EndChar

StartChar: asterisk
Encoding: 42 42 68
Width: 500
Flags: W
LayerCount: 2
Fore
SplineSet
423.205078125 425 m 1,0,-1
 444.85546875 412.5 l 1,1,-1
 444.85546875 387.5 l 1,2,-1
 76.7958984375 175 l 1,3,-1
 55.146484375 187.5 l 1,4,-1
 55.146484375 212.5 l 1,5,-1
 423.205078125 425 l 1,0,-1
228.349609375 512.5 m 1,6,-1
 250 525 l 1,7,-1
 271.650390625 512.5 l 1,8,-1
 271.651367188 87.5 l 1,9,-1
 250.000976562 75.0009765625 l 1,10,-1
 228.350585938 87.5009765625 l 1,11,-1
 228.349609375 512.5 l 1,6,-1
76.794921875 425 m 1,12,-1
 444.853515625 212.5 l 1,13,-1
 444.853515625 187.5 l 1,14,-1
 423.204101562 175 l 1,15,-1
 55.14453125 387.5 l 1,16,-1
 55.14453125 412.5 l 1,17,-1
 76.794921875 425 l 1,12,-1
EndSplineSet
EndChar

StartChar: three
Encoding: 51 51 69
Width: 500
Flags: W
LayerCount: 2
Fore
SplineSet
444.856445312 187.5 m 1,0,-1
 250 75 l 1,1,-1
 55.1435546875 187.5 l 1,2,-1
 55.1435546875 412.5 l 1,3,-1
 250 525 l 1,4,-1
 271.650390625 512.5 l 1,5,-1
 271.650390625 487.5 l 1,6,-1
 98.4453125 387.5 l 1,7,-1
 98.4453125 212.5 l 1,8,-1
 250 125 l 1,9,-1
 423.205078125 225 l 1,10,-1
 444.856445312 212.5 l 1,11,-1
 444.856445312 187.5 l 1,0,-1
250 425 m 1,12,-1
 358.25390625 362.5 l 1,13,-1
 358.25390625 237.5 l 1,14,-1
 250 175 l 1,15,-1
 141.74609375 237.5 l 1,16,-1
 141.74609375 362.5 l 1,17,-1
 250 425 l 1,12,-1
250 375 m 1,18,-1
 185.048828125 337.5 l 1,19,-1
 185.048828125 262.5 l 1,20,-1
 250 225 l 1,21,-1
 314.951171875 262.5 l 1,22,-1
 314.951171875 337.5 l 1,23,-1
 250 375 l 1,18,-1
EndSplineSet
EndChar

StartChar: quotesingle
Encoding: 39 39 70
Width: 500
Flags: W
LayerCount: 2
Fore
SplineSet
250 525 m 1,0,-1
 271.650390625 512.5 l 1,1,-1
 271.650390625 487.5 l 1,2,-1
 250 475 l 1,3,-1
 228.349609375 487.5 l 1,4,-1
 228.349609375 512.5 l 1,5,-1
 250 525 l 1,0,-1
EndSplineSet
EndChar

StartChar: ampersand
Encoding: 38 38 71
Width: 500
Flags: W
LayerCount: 2
Fore
SplineSet
250 75 m 1,0,-1
 55.14453125 187.5 l 1,1,-1
 55.14453125 212.5 l 1,2,-1
 76.794921875 225 l 1,3,-1
 250 125 l 1,4,-1
 401.5546875 212.5 l 1,5,-1
 401.5546875 387.5 l 1,6,-1
 250 475 l 1,7,-1
 76.794921875 375 l 1,8,-1
 55.14453125 387.5 l 1,9,-1
 55.14453125 412.5 l 1,10,-1
 250 525 l 1,11,-1
 444.85546875 412.5 l 1,12,-1
 444.85546875 187.5 l 1,13,-1
 250 75 l 1,0,-1
250 175 m 1,14,-1
 141.74609375 237.5 l 1,15,-1
 141.74609375 262.5 l 1,16,-1
 163.396484375 275 l 1,17,-1
 250 225 l 1,18,-1
 314.951171875 262.5 l 1,19,-1
 314.951171875 337.5 l 1,20,-1
 250 375 l 1,21,-1
 163.396484375 325 l 1,22,-1
 141.74609375 337.5 l 1,23,-1
 141.74609375 362.5 l 1,24,-1
 250 425 l 1,25,-1
 358.25390625 362.5 l 1,26,-1
 358.25390625 237.5 l 1,27,-1
 250 175 l 1,14,-1
250 325 m 1,28,-1
 271.650390625 312.5 l 1,29,-1
 271.650390625 287.5 l 1,30,-1
 250 275 l 1,31,-1
 228.349609375 287.5 l 1,32,-1
 228.349609375 312.5 l 1,33,-1
 250 325 l 1,28,-1
EndSplineSet
EndChar

StartChar: two
Encoding: 50 50 72
Width: 500
Flags: W
LayerCount: 2
Fore
SplineSet
444.856445312 412.5 m 1,0,-1
 444.856445312 187.5 l 1,1,-1
 250 75 l 1,2,-1
 55.14453125 187.5 l 1,3,-1
 55.14453125 412.5 l 1,4,-1
 76.794921875 425 l 1,5,-1
 98.4462890625 412.5 l 1,6,-1
 98.4462890625 212.5 l 1,7,-1
 250 125 l 1,8,-1
 401.5546875 212.5 l 1,9,-1
 401.5546875 412.5 l 1,10,-1
 423.206054688 425 l 1,11,-1
 444.856445312 412.5 l 1,0,-1
250 425 m 1,12,-1
 358.25390625 362.5 l 1,13,-1
 358.25390625 237.5 l 1,14,-1
 250 175 l 1,15,-1
 141.74609375 237.5 l 1,16,-1
 141.74609375 362.5 l 1,17,-1
 250 425 l 1,12,-1
250 375 m 1,18,-1
 185.048828125 337.5 l 1,19,-1
 185.048828125 262.5 l 1,20,-1
 250 225 l 1,21,-1
 314.951171875 262.5 l 1,22,-1
 314.951171875 337.5 l 1,23,-1
 250 375 l 1,18,-1
EndSplineSet
EndChar

StartChar: equal
Encoding: 61 61 73
Width: 500
Flags: W
LayerCount: 2
Fore
SplineSet
250 425 m 1,0,-1
 358.25390625 362.5 l 1,1,-1
 358.25390625 337.5 l 1,2,-1
 336.603515625 325 l 1,3,-1
 314.951171875 337.5 l 1,4,-1
 250 375 l 1,5,-1
 185.048828125 337.5 l 1,6,-1
 163.396484375 325 l 1,7,-1
 141.74609375 337.5 l 1,8,-1
 141.74609375 362.5 l 1,9,-1
 250 425 l 1,0,-1
163.396484375 275 m 1,10,-1
 185.048828125 262.5 l 1,11,-1
 250 225 l 1,12,-1
 314.951171875 262.5 l 1,13,-1
 336.603515625 275 l 1,14,-1
 358.25390625 262.5 l 1,15,-1
 358.25390625 237.5 l 1,16,-1
 250 175 l 1,17,-1
 141.74609375 237.5 l 1,18,-1
 141.74609375 262.5 l 1,19,-1
 163.396484375 275 l 1,10,-1
EndSplineSet
EndChar

StartChar: plus
Encoding: 43 43 74
Width: 500
Flags: W
LayerCount: 2
Fore
SplineSet
250 525 m 1,0,-1
 271.650390625 512.5 l 1,1,-1
 271.650390625 337.5 l 1,2,-1
 423.206054688 425 l 1,3,-1
 444.856445312 412.5 l 1,4,-1
 444.856445312 187.5 l 1,5,-1
 444.853515625 187.5 l 1,6,-1
 423.205078125 175 l 1,7,-1
 271.650390625 262.5 l 1,8,-1
 271.650390625 87.5 l 1,9,-1
 250.001953125 75.001953125 l 1,10,-1
 228.3515625 87.501953125 l 1,11,-1
 228.3515625 262.5 l 1,12,-1
 76.796875 175 l 1,13,-1
 55.1474609375 187.5 l 1,14,-1
 55.14453125 187.5 l 1,15,-1
 55.14453125 412.5 l 1,16,-1
 76.794921875 425 l 1,17,-1
 228.349609375 337.498046875 l 1,18,-1
 228.349609375 512.5 l 1,19,-1
 250 525 l 1,0,-1
EndSplineSet
EndChar

StartChar: question
Encoding: 63 63 75
Width: 500
Flags: W
LayerCount: 2
Fore
SplineSet
250 525 m 1,0,-1
 271.650390625 512.5 l 1,1,-1
 271.650390625 487.5 l 1,2,-1
 250 475 l 1,3,-1
 228.349609375 487.5 l 1,4,-1
 228.349609375 512.5 l 1,5,-1
 250 525 l 1,0,-1
250 325 m 1,6,-1
 271.650390625 312.5 l 1,7,-1
 271.650390625 287.5 l 1,8,-1
 250 275 l 1,9,-1
 228.349609375 287.5 l 1,10,-1
 228.349609375 312.5 l 1,11,-1
 250 325 l 1,6,-1
250 125 m 1,12,-1
 271.650390625 112.5 l 1,13,-1
 271.650390625 87.5 l 1,14,-1
 250 75 l 1,15,-1
 228.349609375 87.5 l 1,16,-1
 228.349609375 112.5 l 1,17,-1
 250 125 l 1,12,-1
EndSplineSet
EndChar

StartChar: dollar
Encoding: 36 36 76
Width: 500
Flags: W
LayerCount: 2
Fore
SplineSet
76.794921875 225 m 1,0,-1
 98.4453125 212.5 l 1,1,-1
 250 125 l 1,2,-1
 401.5546875 212.5 l 1,3,-1
 423.205078125 225 l 1,4,-1
 444.85546875 212.5 l 1,5,-1
 444.85546875 187.5 l 1,6,-1
 250 75 l 1,7,-1
 55.14453125 187.5 l 1,8,-1
 55.14453125 212.5 l 1,9,-1
 76.794921875 225 l 1,0,-1
250 525 m 1,10,-1
 444.85546875 412.5 l 1,11,-1
 444.85546875 387.5 l 1,12,-1
 423.205078125 375 l 1,13,-1
 401.5546875 387.5 l 1,14,-1
 250 475 l 1,15,-1
 98.4453125 387.5 l 1,16,-1
 76.794921875 375 l 1,17,-1
 55.14453125 387.5 l 1,18,-1
 55.14453125 412.5 l 1,19,-1
 250 525 l 1,10,-1
271.650390625 712.5 m 1,20,-1
 271.650390625 -112.5 l 1,21,-1
 250 -125 l 1,22,-1
 228.349609375 -112.5 l 1,23,-1
 228.349609375 712.5 l 1,24,-1
 250 725 l 1,25,-1
 271.650390625 712.5 l 1,20,-1
76.794921875 425 m 1,26,-1
 444.853515625 212.5 l 1,27,-1
 444.853515625 187.5 l 1,28,-1
 423.204101562 175 l 1,29,-1
 55.14453125 387.5 l 1,30,-1
 55.14453125 412.5 l 1,31,-1
 76.794921875 425 l 1,26,-1
EndSplineSet
EndChar

StartChar: zero
Encoding: 48 48 77
Width: 500
Flags: W
LayerCount: 2
Fore
SplineSet
250 425 m 1,0,-1
 358.25390625 362.5 l 1,1,-1
 358.25390625 237.5 l 1,2,-1
 250 175 l 1,3,-1
 141.74609375 237.5 l 1,4,-1
 141.74609375 362.5 l 1,5,-1
 250 425 l 1,0,-1
250 375 m 1,6,-1
 185.048828125 337.5 l 1,7,-1
 185.048828125 262.5 l 1,8,-1
 250 225 l 1,9,-1
 314.951171875 262.5 l 1,10,-1
 314.951171875 337.5 l 1,11,-1
 250 375 l 1,6,-1
EndSplineSet
EndChar

StartChar: one
Encoding: 49 49 78
Width: 500
Flags: W
LayerCount: 2
Fore
SplineSet
250 525 m 1,0,-1
 444.85546875 412.5 l 1,1,-1
 444.85546875 187.5 l 1,2,-1
 250 75 l 1,3,-1
 55.14453125 187.5 l 1,4,-1
 55.14453125 212.5 l 1,5,-1
 76.794921875 225 l 1,6,-1
 250 125 l 1,7,-1
 401.5546875 212.5 l 1,8,-1
 401.5546875 387.5 l 1,9,-1
 228.349609375 487.5 l 1,10,-1
 228.349609375 512.5 l 1,11,-1
 250 525 l 1,0,-1
250 425 m 1,12,-1
 358.25390625 362.5 l 1,13,-1
 358.25390625 237.5 l 1,14,-1
 250 175 l 1,15,-1
 141.74609375 237.5 l 1,16,-1
 141.74609375 362.5 l 1,17,-1
 250 425 l 1,12,-1
250 375 m 1,18,-1
 185.048828125 337.5 l 1,19,-1
 185.048828125 262.5 l 1,20,-1
 250 225 l 1,21,-1
 314.951171875 262.5 l 1,22,-1
 314.951171875 337.5 l 1,23,-1
 250 375 l 1,18,-1
EndSplineSet
EndChar

StartChar: percent
Encoding: 37 37 79
Width: 500
Flags: W
LayerCount: 2
Fore
SplineSet
55.1435546875 412.5 m 1,0,-1
 76.7939453125 425 l 1,1,-1
 98.4453125 412.5 l 1,2,-1
 98.4453125 387.5 l 1,3,-1
 76.7958984375 375 l 1,4,-1
 55.146484375 387.5 l 1,5,-1
 55.1435546875 412.5 l 1,0,-1
401.553710938 212.5 m 1,6,-1
 423.204101562 225 l 1,7,-1
 444.85546875 212.5 l 1,8,-1
 444.85546875 187.5 l 1,9,-1
 423.205078125 175 l 1,10,-1
 401.5546875 187.5 l 1,11,-1
 401.553710938 212.5 l 1,6,-1
423.205078125 425 m 1,12,-1
 444.85546875 412.5 l 1,13,-1
 444.85546875 387.5 l 1,14,-1
 76.7958984375 175 l 1,15,-1
 55.146484375 187.5 l 1,16,-1
 55.146484375 212.5 l 1,17,-1
 423.205078125 425 l 1,12,-1
EndSplineSet
EndChar

StartChar: comma
Encoding: 44 44 80
Width: 500
Flags: W
LayerCount: 2
Fore
SplineSet
250 325 m 1,0,-1
 271.650390625 312.5 l 1,1,-1
 271.650390625 287.5 l 1,2,-1
 250 275 l 1,3,-1
 228.349609375 287.5 l 1,4,-1
 228.349609375 312.5 l 1,5,-1
 250 325 l 1,0,-1
401.553710938 412.5 m 1,6,-1
 423.205078125 425 l 1,7,-1
 444.85546875 412.5 l 1,8,-1
 444.85546875 187.5 l 1,9,-1
 423.205078125 175 l 1,10,-1
 401.5546875 187.5 l 1,11,-1
 401.553710938 412.5 l 1,6,-1
55.1435546875 412.5 m 1,12,-1
 76.7939453125 425 l 1,13,-1
 98.4462890625 412.5 l 1,14,-1
 98.4462890625 187.5 l 1,15,-1
 76.794921875 175 l 1,16,-1
 55.14453125 187.5 l 1,17,-1
 55.1435546875 412.5 l 1,12,-1
EndSplineSet
EndChar

StartChar: exclam
Encoding: 33 33 81
Width: 500
Flags: W
LayerCount: 2
Fore
SplineSet
250 525 m 1,0,-1
 271.650390625 512.5 l 1,1,-1
 271.650390625 487.5 l 1,2,-1
 250 475 l 1,3,-1
 228.349609375 487.5 l 1,4,-1
 228.349609375 512.5 l 1,5,-1
 250 525 l 1,0,-1
250 125 m 1,6,-1
 271.650390625 112.5 l 1,7,-1
 271.650390625 87.5 l 1,8,-1
 250 75 l 1,9,-1
 228.349609375 87.5 l 1,10,-1
 228.349609375 112.5 l 1,11,-1
 250 125 l 1,6,-1
EndSplineSet
EndChar

StartChar: five
Encoding: 53 53 82
Width: 500
Flags: W
LayerCount: 2
Fore
SplineSet
250 525 m 1,0,-1
 423.205078125 425 l 1,1,-1
 444.85546875 412.5 l 1,2,-1
 444.85546875 187.5 l 1,3,-1
 423.205078125 175 l 1,4,-1
 250 75 l 1,5,-1
 76.794921875 175 l 1,6,-1
 55.14453125 187.5 l 1,7,-1
 55.14453125 412.5 l 1,8,-1
 76.794921875 425 l 1,9,-1
 250 525 l 1,0,-1
250 475 m 1,10,-1
 98.4453125 387.5 l 1,11,-1
 98.4453125 212.5 l 1,12,-1
 250 125 l 1,13,-1
 401.5546875 212.5 l 1,14,-1
 401.5546875 387.5 l 1,15,-1
 250 475 l 1,10,-1
250 425 m 1,16,-1
 358.25390625 362.5 l 1,17,-1
 358.25390625 237.5 l 1,18,-1
 250 175 l 1,19,-1
 141.74609375 237.5 l 1,20,-1
 141.74609375 362.5 l 1,21,-1
 250 425 l 1,16,-1
250 375 m 1,22,-1
 185.048828125 337.5 l 1,23,-1
 185.048828125 262.5 l 1,24,-1
 250 225 l 1,25,-1
 314.951171875 262.5 l 1,26,-1
 314.951171875 337.5 l 1,27,-1
 250 375 l 1,22,-1
EndSplineSet
EndChar

StartChar: less
Encoding: 60 60 83
Width: 500
Flags: W
LayerCount: 2
Fore
SplineSet
250 425 m 1,0,-1
 358.25390625 362.5 l 1,1,-1
 358.25390625 337.5 l 1,2,-1
 336.603515625 325 l 1,3,-1
 250 375 l 1,4,-1
 185.048828125 337.5 l 1,5,-1
 185.048828125 262.5 l 1,6,-1
 250 225 l 1,7,-1
 336.603515625 275 l 1,8,-1
 358.25390625 262.5 l 1,9,-1
 358.25390625 237.5 l 1,10,-1
 250 175 l 1,11,-1
 141.74609375 237.5 l 1,12,-1
 141.74609375 362.5 l 1,13,-1
 250 425 l 1,0,-1
EndSplineSet
EndChar

StartChar: semicolon
Encoding: 59 59 84
Width: 500
Flags: W
LayerCount: 2
Fore
SplineSet
76.794921875 425 m 1,0,-1
 444.853515625 212.5 l 1,1,-1
 444.853515625 187.5 l 1,2,-1
 423.204101562 175 l 1,3,-1
 55.14453125 387.5 l 1,4,-1
 55.14453125 412.5 l 1,5,-1
 76.794921875 425 l 1,0,-1
250 325 m 1,6,-1
 271.650390625 312.5 l 1,7,-1
 271.650390625 287.5 l 1,8,-1
 250 275 l 1,9,-1
 228.349609375 287.5 l 1,10,-1
 228.349609375 312.5 l 1,11,-1
 250 325 l 1,6,-1
401.553710938 412.5 m 1,12,-1
 423.205078125 425 l 1,13,-1
 444.85546875 412.5 l 1,14,-1
 444.85546875 187.5 l 1,15,-1
 423.205078125 175 l 1,16,-1
 401.5546875 187.5 l 1,17,-1
 401.553710938 412.5 l 1,12,-1
55.1435546875 412.5 m 1,18,-1
 76.7939453125 425 l 1,19,-1
 98.4462890625 412.5 l 1,20,-1
 98.4462890625 187.5 l 1,21,-1
 76.794921875 175 l 1,22,-1
 55.14453125 187.5 l 1,23,-1
 55.1435546875 412.5 l 1,18,-1
EndSplineSet
EndChar

StartChar: slash
Encoding: 47 47 85
Width: 500
Flags: W
LayerCount: 2
Fore
SplineSet
423.205078125 425 m 1,0,-1
 444.85546875 412.5 l 1,1,-1
 444.85546875 387.5 l 1,2,-1
 76.7958984375 175 l 1,3,-1
 55.146484375 187.5 l 1,4,-1
 55.146484375 212.5 l 1,5,-1
 423.205078125 425 l 1,0,-1
EndSplineSet
EndChar

StartChar: four
Encoding: 52 52 86
Width: 500
Flags: W
LayerCount: 2
Fore
SplineSet
250 75 m 1,0,-1
 55.14453125 187.5 l 1,1,-1
 55.14453125 212.5 l 1,2,-1
 76.794921875 225 l 1,3,-1
 250 125 l 1,4,-1
 401.5546875 212.5 l 1,5,-1
 401.5546875 387.5 l 1,6,-1
 250 475 l 1,7,-1
 76.794921875 375 l 1,8,-1
 55.14453125 387.5 l 1,9,-1
 55.14453125 412.5 l 1,10,-1
 250 525 l 1,11,-1
 444.85546875 412.5 l 1,12,-1
 444.85546875 187.5 l 1,13,-1
 250 75 l 1,0,-1
250 425 m 1,14,-1
 358.25390625 362.5 l 1,15,-1
 358.25390625 237.5 l 1,16,-1
 250 175 l 1,17,-1
 141.74609375 237.5 l 1,18,-1
 141.74609375 362.5 l 1,19,-1
 250 425 l 1,14,-1
250 375 m 1,20,-1
 185.048828125 337.5 l 1,21,-1
 185.048828125 262.5 l 1,22,-1
 250 225 l 1,23,-1
 314.951171875 262.5 l 1,24,-1
 314.951171875 337.5 l 1,25,-1
 250 375 l 1,20,-1
EndSplineSet
EndChar

StartChar: six
Encoding: 54 54 87
Width: 500
Flags: W
LayerCount: 2
Fore
SplineSet
250 525 m 1,0,-1
 444.85546875 412.5 l 1,1,-1
 444.85546875 387.5 l 1,2,-1
 423.205078125 375 l 1,3,-1
 250 475 l 1,4,-1
 98.4453125 387.5 l 1,5,-1
 98.4453125 212.5 l 1,6,-1
 250 125 l 1,7,-1
 423.205078125 225 l 1,8,-1
 444.85546875 212.5 l 1,9,-1
 444.85546875 187.5 l 1,10,-1
 250 75 l 1,11,-1
 55.14453125 187.5 l 1,12,-1
 55.14453125 412.5 l 1,13,-1
 250 525 l 1,0,-1
250 425 m 1,14,-1
 358.25390625 362.5 l 1,15,-1
 358.25390625 237.5 l 1,16,-1
 250 175 l 1,17,-1
 141.74609375 237.5 l 1,18,-1
 141.74609375 362.5 l 1,19,-1
 250 425 l 1,14,-1
250 375 m 1,20,-1
 185.048828125 337.5 l 1,21,-1
 185.048828125 262.5 l 1,22,-1
 250 225 l 1,23,-1
 314.951171875 262.5 l 1,24,-1
 314.951171875 337.5 l 1,25,-1
 250 375 l 1,20,-1
EndSplineSet
EndChar

StartChar: quotedbl
Encoding: 34 34 88
Width: 500
Flags: W
LayerCount: 2
Fore
SplineSet
444.856445312 412.5 m 1,0,-1
 444.856445312 387.5 l 1,1,-1
 423.206054688 375 l 1,2,-1
 401.553710938 387.5 l 1,3,-1
 401.553710938 412.5 l 1,4,-1
 423.205078125 425 l 1,5,-1
 444.856445312 412.5 l 1,0,-1
55.1435546875 412.5 m 1,6,-1
 76.7939453125 425 l 1,7,-1
 98.4462890625 412.5 l 1,8,-1
 98.4462890625 387.5 l 1,9,-1
 76.794921875 375 l 1,10,-1
 55.14453125 387.5 l 1,11,-1
 55.1435546875 412.5 l 1,6,-1
EndSplineSet
EndChar

StartChar: hyphen
Encoding: 45 45 89
Width: 500
Flags: W
LayerCount: 2
Fore
SplineSet
76.794921875 425 m 1,0,-1
 250 325 l 1,1,-1
 423.206054688 425 l 1,2,-1
 444.856445312 412.5 l 1,3,-1
 444.856445312 187.5 l 1,4,-1
 444.853515625 187.5 l 1,5,-1
 423.205078125 175 l 1,6,-1
 250 275 l 1,7,-1
 76.796875 175 l 1,8,-1
 55.1474609375 187.5 l 1,9,-1
 55.14453125 187.5 l 1,10,-1
 55.14453125 412.5 l 1,11,-1
 76.794921875 425 l 1,0,-1
EndSplineSet
EndChar

StartChar: period
Encoding: 46 46 90
Width: 500
Flags: W
LayerCount: 2
Fore
SplineSet
250 525 m 1,0,-1
 271.650390625 512.5 l 1,1,-1
 271.650390625 487.5 l 1,2,-1
 250 475 l 1,3,-1
 228.349609375 487.5 l 1,4,-1
 228.349609375 512.5 l 1,5,-1
 250 525 l 1,0,-1
250 325 m 1,6,-1
 271.650390625 312.5 l 1,7,-1
 271.650390625 287.5 l 1,8,-1
 250 275 l 1,9,-1
 228.349609375 287.5 l 1,10,-1
 228.349609375 312.5 l 1,11,-1
 250 325 l 1,6,-1
250 125 m 1,12,-1
 271.650390625 112.5 l 1,13,-1
 271.650390625 87.5 l 1,14,-1
 250 75 l 1,15,-1
 228.349609375 87.5 l 1,16,-1
 228.349609375 112.5 l 1,17,-1
 250 125 l 1,12,-1
401.553710938 412.5 m 1,18,-1
 423.205078125 425 l 1,19,-1
 444.85546875 412.5 l 1,20,-1
 444.85546875 187.5 l 1,21,-1
 423.205078125 175 l 1,22,-1
 401.5546875 187.5 l 1,23,-1
 401.553710938 412.5 l 1,18,-1
55.1435546875 412.5 m 1,24,-1
 76.7939453125 425 l 1,25,-1
 98.4462890625 412.5 l 1,26,-1
 98.4462890625 187.5 l 1,27,-1
 76.794921875 175 l 1,28,-1
 55.14453125 187.5 l 1,29,-1
 55.1435546875 412.5 l 1,24,-1
EndSplineSet
EndChar

StartChar: colon
Encoding: 58 58 91
Width: 500
Flags: W
LayerCount: 2
Fore
SplineSet
76.794921875 425 m 1,0,-1
 444.853515625 212.5 l 1,1,-1
 444.853515625 187.5 l 1,2,-1
 423.204101562 175 l 1,3,-1
 55.14453125 387.5 l 1,4,-1
 55.14453125 412.5 l 1,5,-1
 76.794921875 425 l 1,0,-1
250 525 m 1,6,-1
 271.650390625 512.5 l 1,7,-1
 271.650390625 487.5 l 1,8,-1
 250 475 l 1,9,-1
 228.349609375 487.5 l 1,10,-1
 228.349609375 512.5 l 1,11,-1
 250 525 l 1,6,-1
250 325 m 1,12,-1
 271.650390625 312.5 l 1,13,-1
 271.650390625 287.5 l 1,14,-1
 250 275 l 1,15,-1
 228.349609375 287.5 l 1,16,-1
 228.349609375 312.5 l 1,17,-1
 250 325 l 1,12,-1
250 125 m 1,18,-1
 271.650390625 112.5 l 1,19,-1
 271.650390625 87.5 l 1,20,-1
 250 75 l 1,21,-1
 228.349609375 87.5 l 1,22,-1
 228.349609375 112.5 l 1,23,-1
 250 125 l 1,18,-1
401.553710938 412.5 m 1,24,-1
 423.205078125 425 l 1,25,-1
 444.85546875 412.5 l 1,26,-1
 444.85546875 187.5 l 1,27,-1
 423.205078125 175 l 1,28,-1
 401.5546875 187.5 l 1,29,-1
 401.553710938 412.5 l 1,24,-1
55.1435546875 412.5 m 1,30,-1
 76.7939453125 425 l 1,31,-1
 98.4462890625 412.5 l 1,32,-1
 98.4462890625 187.5 l 1,33,-1
 76.794921875 175 l 1,34,-1
 55.14453125 187.5 l 1,35,-1
 55.1435546875 412.5 l 1,30,-1
EndSplineSet
EndChar

StartChar: numbersign
Encoding: 35 35 92
Width: 500
Flags: W
LayerCount: 2
Fore
SplineSet
271.650390625 712.5 m 1,0,-1
 271.650390625 -112.5 l 1,1,-1
 250 -125 l 1,2,-1
 228.349609375 -112.5 l 1,3,-1
 228.349609375 712.5 l 1,4,-1
 250 725 l 1,5,-1
 271.650390625 712.5 l 1,0,-1
250 525 m 1,6,-1
 444.85546875 412.5 l 1,7,-1
 444.85546875 387.5 l 1,8,-1
 423.205078125 375 l 1,9,-1
 250 475 l 1,10,-1
 98.4453125 387.5 l 1,11,-1
 98.4453125 212.5 l 1,12,-1
 250 125 l 1,13,-1
 423.205078125 225 l 1,14,-1
 444.85546875 212.5 l 1,15,-1
 444.85546875 187.5 l 1,16,-1
 250 75 l 1,17,-1
 55.14453125 187.5 l 1,18,-1
 55.14453125 412.5 l 1,19,-1
 250 525 l 1,6,-1
76.794921875 425 m 1,20,-1
 444.853515625 212.5 l 1,21,-1
 444.853515625 187.5 l 1,22,-1
 423.204101562 175 l 1,23,-1
 55.14453125 387.5 l 1,24,-1
 55.14453125 412.5 l 1,25,-1
 76.794921875 425 l 1,20,-1
EndSplineSet
EndChar

StartChar: seven
Encoding: 55 55 93
Width: 500
Flags: W
LayerCount: 2
Fore
SplineSet
228.349609375 87.5 m 1,0,-1
 228.348632812 112.5 l 1,1,-1
 401.553710938 212.5 l 1,2,-1
 401.553710938 387.5 l 1,3,-1
 250 475 l 1,4,-1
 76.7939453125 375 l 1,5,-1
 55.1435546875 387.5 l 1,6,-1
 55.1435546875 412.5 l 1,7,-1
 250 525 l 1,8,-1
 444.856445312 412.5 l 1,9,-1
 444.856445312 187.5 l 1,10,-1
 250 75 l 1,11,-1
 228.349609375 87.5 l 1,0,-1
250 425 m 1,12,-1
 358.25390625 362.5 l 1,13,-1
 358.25390625 237.5 l 1,14,-1
 250 175 l 1,15,-1
 141.74609375 237.5 l 1,16,-1
 141.74609375 362.5 l 1,17,-1
 250 425 l 1,12,-1
250 375 m 1,18,-1
 185.048828125 337.5 l 1,19,-1
 185.048828125 262.5 l 1,20,-1
 250 225 l 1,21,-1
 314.951171875 262.5 l 1,22,-1
 314.951171875 337.5 l 1,23,-1
 250 375 l 1,18,-1
EndSplineSet
EndChar

